<svg width="29" height="27" viewBox="0 0 29 27" fill="none" xmlns="http://www.w3.org/2000/svg">
<path d="M2.47593 14.3593L3.07154 13.7658L4.83735 25.5024C4.83735 25.9924 5.24385 26.39 5.74573 26.39H22.8039C23.3058 26.39 23.7123 25.9924 23.7123 25.5024L25.4366 14.043L25.7804 14.3758C26.0617 14.6487 26.4257 14.7847 26.7893 14.7847C27.1679 14.7847 27.5461 14.6374 27.8303 14.3433C28.388 13.7677 28.3733 12.8499 27.7983 12.2923L15.9858 0.849411C15.4381 0.301693 14.7096 0 13.9348 0C13.1603 0 12.4323 0.301693 11.8839 0.849411L0.424941 12.3083C-0.141647 12.8744 -0.141647 13.7932 0.424941 14.3593C0.991766 14.9259 1.90935 14.9259 2.47593 14.3593ZM14.2596 20.4273C12.2792 20.4273 10.6737 18.8215 10.6737 16.8414C10.6737 14.8612 12.2792 13.2555 14.2596 13.2555C16.2398 13.2555 17.8455 14.8613 17.8455 16.8414C17.8451 18.8215 16.2398 20.4273 14.2596 20.4273Z" fill="#FF974D"/>
</svg>
