<svg width="27" height="24" viewBox="0 0 27 24" fill="none" xmlns="http://www.w3.org/2000/svg">
<path d="M21.543 20.8939L21.543 20.894C20.9006 22.1929 19.9418 22.8532 18.9053 23.164C17.8466 23.4814 16.687 23.4379 15.6875 23.2712C14.0641 23.0003 12.407 23.0003 10.7835 23.2712C9.78305 23.4379 8.62344 23.4813 7.56498 23.1639C6.52869 22.8531 5.5701 22.1927 4.92745 20.8939C3.88195 18.7805 4.59585 16.008 6.36356 13.6708C8.12542 11.3414 10.7738 9.66885 13.2355 9.66885C15.6971 9.66885 18.3455 11.3414 20.1073 13.6708C21.875 16.008 22.5888 18.7805 21.543 20.8939Z" stroke="#C8C3BE" stroke-width="1.2"/>
<path d="M11.2227 3.38964C11.2227 5.05294 10.1481 6.17927 9.06955 6.17927C7.99098 6.17927 6.91641 5.05294 6.91641 3.38964C6.91641 1.72633 7.99098 0.6 9.06955 0.6C10.1481 0.6 11.2227 1.72633 11.2227 3.38964Z" stroke="#C8C3BE" stroke-width="1.2"/>
<path d="M19.5474 3.38964C19.5474 5.05294 18.4728 6.17927 17.3943 6.17927C16.3157 6.17927 15.2411 5.05294 15.2411 3.38964C15.2411 1.72633 16.3157 0.6 17.3943 0.6C18.4728 0.6 19.5474 1.72633 19.5474 3.38964Z" stroke="#C8C3BE" stroke-width="1.2"/>
<path d="M4.15323 8.50497C4.15323 9.91261 3.24691 10.8319 2.3753 10.8319C1.50444 10.8319 0.6 9.91354 0.6 8.50497C0.6 7.09674 1.5068 6.17764 2.3753 6.17764C3.2446 6.17764 4.15323 7.0973 4.15323 8.50497Z" stroke="#C8C3BE" stroke-width="1.2"/>
<path d="M24.0967 10.8319C23.2251 10.8319 22.3188 9.91261 22.3188 8.50497C22.3188 7.09753 23.2268 6.17764 24.0984 6.17764C24.9695 6.17764 25.8759 7.09713 25.8759 8.50497C25.8759 9.91214 24.9687 10.8319 24.0967 10.8319Z" stroke="#C8C3BE" stroke-width="1.2"/>
</svg>
