<svg width="10" height="5" viewBox="0 0 10 5" fill="none" xmlns="http://www.w3.org/2000/svg">
<path d="M4.60425 4.99999C4.51774 5.00046 4.43197 4.98471 4.35188 4.95362C4.27179 4.92253 4.19894 4.87673 4.13752 4.81883L0.193326 1.07076C0.0695414 0.953128 0 0.793588 0 0.627235C0 0.460882 0.0695414 0.301342 0.193326 0.183713C0.31711 0.0660836 0.484998 0 0.660055 0C0.835113 0 1.003 0.0660836 1.12678 0.183713L4.60425 3.49451L8.08171 0.18996C8.20747 0.087621 8.36923 0.0341443 8.53467 0.040217C8.70012 0.0462896 8.85705 0.111464 8.97413 0.222716C9.0912 0.333968 9.15978 0.483103 9.16617 0.64032C9.17257 0.797537 9.11629 0.951255 9.0086 1.07076L5.0644 4.81883C4.94196 4.93424 4.7767 4.9993 4.60425 4.99999Z" fill="#A3A3A3"/>
</svg>
