<svg width="23" height="25" viewBox="0 0 23 25" fill="none" xmlns="http://www.w3.org/2000/svg">
<path fill-rule="evenodd" clip-rule="evenodd" d="M21.9732 7.39619L21.2284 6.10381C20.5984 5.01026 19.2021 4.63301 18.107 5.26048V5.26048C17.5858 5.56754 16.9638 5.65466 16.3782 5.50262C15.7926 5.35058 15.2916 4.97187 14.9856 4.45C14.7887 4.11829 14.6829 3.74047 14.6789 3.35476V3.35476C14.6967 2.73636 14.4634 2.13711 14.0322 1.69351C13.6009 1.24991 13.0085 0.999745 12.3899 1H10.8894C10.2833 0.999993 9.70219 1.24151 9.27465 1.67111C8.84711 2.1007 8.60838 2.68296 8.61129 3.28905V3.28905C8.59333 4.5404 7.57373 5.54537 6.32225 5.54524C5.93653 5.54123 5.55872 5.43544 5.22701 5.23857V5.23857C4.13196 4.61111 2.73565 4.98835 2.10558 6.08191L1.30606 7.39619C0.676747 8.48838 1.04886 9.8838 2.13844 10.5176V10.5176C2.84668 10.9265 3.28297 11.6822 3.28297 12.5C3.28297 13.3178 2.84668 14.0735 2.13844 14.4824V14.4824C1.05025 15.1119 0.677725 16.504 1.30606 17.5929V17.5929L2.06177 18.8962C2.35698 19.4289 2.8523 19.822 3.43812 19.9885C4.02394 20.1549 4.65195 20.0811 5.1832 19.7833V19.7833C5.70544 19.4786 6.32778 19.3951 6.91187 19.5514C7.49597 19.7077 7.99343 20.0909 8.29368 20.6157C8.49055 20.9474 8.59634 21.3252 8.60034 21.711V21.711C8.60034 22.9752 9.62518 24 10.8894 24H12.3899C13.6498 24 14.6729 22.9818 14.6789 21.7219V21.7219C14.676 21.1139 14.9162 20.53 15.3461 20.1001C15.776 19.6702 16.36 19.4299 16.968 19.4329C17.3528 19.4432 17.729 19.5485 18.0632 19.7395V19.7395C19.1554 20.3688 20.5508 19.9967 21.1846 18.9071V18.9071L21.9732 17.5929C22.2784 17.0689 22.3622 16.445 22.206 15.8591C22.0497 15.2732 21.6664 14.7738 21.1408 14.4714V14.4714C20.6152 14.1691 20.2319 13.6696 20.0757 13.0838C19.9194 12.4979 20.0032 11.8739 20.3084 11.35C20.5069 11.0034 20.7943 10.7161 21.1408 10.5176V10.5176C22.2239 9.88415 22.5951 8.49687 21.9732 7.40714V7.40714V7.39619Z" stroke="#C8C3BE" stroke-width="1.2" stroke-linecap="round" stroke-linejoin="round"/>
<circle cx="11.6465" cy="12.5" r="3.15429" stroke="#C8C3BE" stroke-width="1.2" stroke-linecap="round" stroke-linejoin="round"/>
</svg>
